<svg width="516" height="514" viewBox="0 0 516 514" fill="none" xmlns="http://www.w3.org/2000/svg">
<path d="M378.885 0V167.293H47.8257V135.119L257.719 49.4564L377.996 0.363414L378.885 0Z" fill="#D6D97F"/>
<path d="M378.885 0.363403V167.293H257.719V49.4564L377.996 0.363403H378.885Z" fill="#E3B981"/>
<path d="M468.211 135.119H47.7874V514H468.211V135.119Z" fill="#E5E7A4"/>
<path d="M468.201 135.119H257.716V514H468.201V135.119Z" fill="#EDC999"/>
<path d="M275.33 398.529H257.716V433.062H275.33V398.529Z" fill="#EDC999"/>
<path d="M318.989 305.624C317.614 328.431 302.908 342.056 289.932 354.078C279.44 363.798 270.057 372.202 261.248 379.77L257.652 382.858L257.079 383.349L234.912 363.094C228.337 357.084 221.54 350.872 215.145 344.028C211.206 339.812 207.784 335.757 204.684 331.628C195.111 318.891 192.701 301.749 198.395 286.893C203.305 274.086 215.151 265.976 229.305 265.729C240.539 265.533 250.876 270.326 257.653 278.445C257.656 278.448 257.659 278.454 257.662 278.458C261.37 274.385 266.847 269.876 274.182 267.624C281.731 265.307 289.789 265.776 298.137 269.013C312.245 274.486 320.042 288.172 318.989 305.624Z" fill="#EBA0A0"/>
<path fill-rule="evenodd" clip-rule="evenodd" d="M62.2952 82.4932C62.5607 81.8981 63.4084 81.8981 63.6739 82.4932L64.3515 83.9681C67.2506 89.9425 71.8177 94.9576 77.5034 98.4121L78.5591 99.0283C79.0499 99.3034 79.0499 100.007 78.5591 100.282L77.5034 100.898C71.8177 104.353 67.2506 109.367 64.3515 115.342L63.6739 116.817C63.4084 117.412 62.5607 117.412 62.2952 116.817L61.6176 115.342C58.7185 109.367 54.1514 104.353 48.4657 100.898L47.4099 100.282C46.9193 100.007 46.9193 99.3034 47.4099 99.0283L48.4657 98.4121C54.1514 94.9576 58.7185 89.9425 61.6176 83.9681C61.8535 83.4822 62.0746 82.9875 62.2952 82.4932ZM62.9724 96.3353L62.2744 97.1531C61.778 97.7098 61.2669 98.2533 60.7418 98.7832L59.9435 99.5678L59.8357 99.6623L60.7418 100.548L61.5189 101.353L62.2744 102.178L62.9724 102.993L63.672 102.178C64.1685 101.621 64.6795 101.078 65.2047 100.548L66.1091 99.6623L66.003 99.5678C65.4638 99.0517 64.9385 98.5216 64.4276 97.9782L63.6721 97.1531L62.9724 96.3353ZM96.7537 41.7051C97.2184 40.6638 98.7019 40.6638 99.1666 41.7051L99.7664 43.0389L100.352 44.2864L101.133 45.8372L102.033 47.5001L102.48 48.2818C106.453 55.112 111.729 61.0951 118.003 65.896L119.705 67.1524C120.894 67.9979 122.115 68.8022 123.368 69.5632C123.977 69.933 124.593 70.2925 125.216 70.6418C126.074 71.1226 126.074 72.3541 125.216 72.8349C124.593 73.1843 123.977 73.5436 123.368 73.9136C122.533 74.4207 121.712 74.9473 120.905 75.4925L119.468 76.4938C112.549 81.4661 106.759 87.8391 102.48 95.195L101.956 96.1145C101.393 97.1222 100.858 98.1481 100.352 99.1902L99.7664 100.438L99.1666 101.772C98.7019 102.813 97.2184 102.813 96.7537 101.772L96.1538 100.438L95.5679 99.1902L94.7876 97.6394L93.8872 95.9764L93.4404 95.195C89.4671 88.3645 84.1906 82.3816 77.9172 77.5806L76.2147 76.3243C75.0261 75.4787 73.8046 74.6743 72.5521 73.9136C71.9435 73.5436 71.3275 73.1843 70.7045 72.8349C69.846 72.3541 69.846 71.1226 70.7045 70.6418C71.3275 70.2925 71.9435 69.933 72.5521 69.5632C73.3871 69.0559 74.2083 68.5293 75.0152 67.9841L76.452 66.9828C83.3711 62.0106 89.1614 55.6374 93.4404 48.2818L93.9645 47.3622C94.5273 46.3543 95.0622 45.3287 95.5679 44.2864L96.1538 43.0389L96.7537 41.7051ZM97.9601 56.0575C93.9518 62.0127 89.0247 67.3056 83.3607 71.7383C89.0247 76.1711 93.9518 81.4637 97.9601 87.419C101.968 81.4637 106.895 76.1711 112.56 71.7383C106.895 67.3056 101.968 62.0127 97.9601 56.0575Z" fill="#EBA0A0"/>
</svg>
